<svg width="400" height="94" viewBox="0 0 400 94" fill="none" xmlns="http://www.w3.org/2000/svg">
<path fill-rule="evenodd" clip-rule="evenodd" d="M8 8H58V19H29H21V27V50H8V8ZM21 58H8H0V50V8V0H8H58H66V8V19H79H87V27V36H102H110V44V86V94H102H52H44V86V77H29H21V69V58ZM58 27H29V50H44V44V36H52H58V27ZM66 36V27H79V36H66ZM58 44H52V50H58V44ZM52 58H58H66V50V44H79V69H52V58ZM44 58V69H29V58H44ZM102 44H87V69V77H79H52V86H102V44Z" fill="#101920"/>
<path d="M171.185 47.7273C171.185 32.1818 161.185 23.8182 148.548 23.8182C135.821 23.8182 125.912 32.1818 125.912 47.7273C125.912 63.1818 135.821 71.6364 148.548 71.6364C161.185 71.6364 171.185 63.2727 171.185 47.7273ZM158.185 47.7273C158.185 56.0909 154.821 60.6364 148.548 60.6364C142.276 60.6364 138.912 56.0909 138.912 47.7273C138.912 39.3636 142.276 34.8182 148.548 34.8182C154.821 34.8182 158.185 39.3636 158.185 47.7273ZM217.304 24.4545H204.668V48.8182H204.304L187.759 24.4545H177.031V71H189.668V46.5455H189.94L206.759 71H217.304V24.4545ZM223.281 71H235.918V57.1818H242.918C253.531 57.1818 260.645 50.9318 260.645 40.9091C260.645 31 253.713 24.4545 243.372 24.4545H223.281V71ZM235.918 47.3636V34.5455H240.372C244.804 34.5455 247.463 36.9091 247.463 40.9091C247.463 44.8864 244.804 47.3636 240.372 47.3636H235.918ZM310.372 47.7273C310.372 32.1818 300.372 23.8182 287.736 23.8182C275.009 23.8182 265.099 32.1818 265.099 47.7273C265.099 63.1818 275.009 71.6364 287.736 71.6364C300.372 71.6364 310.372 63.2727 310.372 47.7273ZM297.372 47.7273C297.372 56.0909 294.009 60.6364 287.736 60.6364C281.463 60.6364 278.099 56.0909 278.099 47.7273C278.099 39.3636 281.463 34.8182 287.736 34.8182C294.009 34.8182 297.372 39.3636 297.372 47.7273ZM316.219 71H328.855V55.6364H333.219L341.401 71H355.128L345.673 53.6364C350.628 51.25 353.582 46.7273 353.582 40.2727C353.582 30.3636 346.651 24.4545 336.31 24.4545H316.219V71ZM328.855 45.8182V34.5455H333.31C337.741 34.5455 340.401 36.2727 340.401 40.2727C340.401 44.25 337.741 45.8182 333.31 45.8182H328.855ZM357.696 34.6364H371.696V71H384.151V34.6364H398.151V24.4545H357.696V34.6364Z" fill="#101920"/>
</svg>
