<svg width="645" height="165" viewBox="0 0 645 165" fill="none" xmlns="http://www.w3.org/2000/svg">
<path fill-rule="evenodd" clip-rule="evenodd" d="M12 12H103.2V33.1637H48.6544H36.6544V45.1637V89.2363H12V12ZM36.6544 101.236H12H0V89.2363V12V0H12H103.2H115.2V12V33.1637H139.854H151.854V45.1637V62.8363H180H192V74.8363V152.073V164.073H180H88.8003H76.8003V152.073V134.4H48.6544H36.6544V122.4V101.236ZM103.2 45.1637H48.6544V89.2363H76.8003V74.8363V62.8363H88.8003H103.2V45.1637ZM115.2 62.8363V45.1637H139.854V62.8363H115.2ZM103.2 74.8363H88.8003V89.2363H103.2V74.8363ZM88.8003 101.236H103.2H115.2V89.2363V74.8363H139.854V122.4H88.8003V101.236ZM76.8003 101.236V122.4H48.6544V101.236H76.8003ZM180 74.8363H151.854V122.4V134.4H139.854H88.8003V152.073H180V74.8363Z" fill="white"/>
<path d="M301.247 61.0909C301.247 37.7727 286.247 25.2273 267.293 25.2273C248.202 25.2273 233.338 37.7727 233.338 61.0909C233.338 84.2727 248.202 96.9545 267.293 96.9545C286.247 96.9545 301.247 84.4091 301.247 61.0909ZM281.747 61.0909C281.747 73.6364 276.702 80.4545 267.293 80.4545C257.884 80.4545 252.838 73.6364 252.838 61.0909C252.838 48.5455 257.884 41.7273 267.293 41.7273C276.702 41.7273 281.747 48.5455 281.747 61.0909ZM370.426 26.1818H351.472V62.7273H350.926L326.108 26.1818H310.017V96H328.972V59.3182H329.381L354.608 96H370.426V26.1818ZM379.392 96H398.347V75.2727H408.847C424.767 75.2727 435.438 65.8977 435.438 50.8636C435.438 36 425.04 26.1818 409.528 26.1818H379.392V96ZM398.347 60.5455V41.3182H405.028C411.676 41.3182 415.665 44.8636 415.665 50.8636C415.665 56.8295 411.676 60.5455 405.028 60.5455H398.347ZM510.028 61.0909C510.028 37.7727 495.028 25.2273 476.074 25.2273C456.983 25.2273 442.119 37.7727 442.119 61.0909C442.119 84.2727 456.983 96.9545 476.074 96.9545C495.028 96.9545 510.028 84.4091 510.028 61.0909ZM490.528 61.0909C490.528 73.6364 485.483 80.4545 476.074 80.4545C466.665 80.4545 461.619 73.6364 461.619 61.0909C461.619 48.5455 466.665 41.7273 476.074 41.7273C485.483 41.7273 490.528 48.5455 490.528 61.0909ZM518.798 96H537.753V72.9545H544.298L556.571 96H577.162L562.98 69.9545C570.412 66.375 574.844 59.5909 574.844 49.9091C574.844 35.0455 564.446 26.1818 548.935 26.1818H518.798V96ZM537.753 58.2273V41.3182H544.435C551.082 41.3182 555.071 43.9091 555.071 49.9091C555.071 55.875 551.082 58.2273 544.435 58.2273H537.753ZM581.014 41.4545H602.014V96H620.696V41.4545H641.696V26.1818H581.014V41.4545Z" fill="white"/>
<path d="M255.965 143.879C255.648 146.586 254.646 148.678 252.959 150.154C251.283 151.619 249.051 152.352 246.262 152.352C243.238 152.352 240.812 151.268 238.984 149.1C237.168 146.932 236.26 144.031 236.26 140.398V137.938C236.26 135.559 236.682 133.467 237.525 131.662C238.381 129.857 239.588 128.475 241.146 127.514C242.705 126.541 244.51 126.055 246.561 126.055C249.279 126.055 251.459 126.816 253.1 128.34C254.74 129.852 255.695 131.949 255.965 134.633H252.572C252.279 132.594 251.641 131.117 250.656 130.203C249.684 129.289 248.318 128.832 246.561 128.832C244.404 128.832 242.711 129.629 241.48 131.223C240.262 132.816 239.652 135.084 239.652 138.025V140.504C239.652 143.281 240.232 145.49 241.393 147.131C242.553 148.771 244.176 149.592 246.262 149.592C248.137 149.592 249.572 149.17 250.568 148.326C251.576 147.471 252.244 145.988 252.572 143.879H255.965ZM269.271 135.898C268.779 135.816 268.246 135.775 267.672 135.775C265.539 135.775 264.092 136.684 263.33 138.5V152H260.078V132.98H263.242L263.295 135.178C264.361 133.479 265.873 132.629 267.83 132.629C268.463 132.629 268.943 132.711 269.271 132.875V135.898ZM279.818 152.352C277.24 152.352 275.143 151.508 273.525 149.82C271.908 148.121 271.1 145.854 271.1 143.018V142.42C271.1 140.533 271.457 138.852 272.172 137.375C272.898 135.887 273.906 134.727 275.195 133.895C276.496 133.051 277.902 132.629 279.414 132.629C281.887 132.629 283.809 133.443 285.18 135.072C286.551 136.701 287.236 139.033 287.236 142.068V143.422H274.352C274.398 145.297 274.943 146.814 275.986 147.975C277.041 149.123 278.377 149.697 279.994 149.697C281.143 149.697 282.115 149.463 282.912 148.994C283.709 148.525 284.406 147.904 285.004 147.131L286.99 148.678C285.396 151.127 283.006 152.352 279.818 152.352ZM279.414 135.301C278.102 135.301 277 135.781 276.109 136.742C275.219 137.691 274.668 139.027 274.457 140.75H283.984V140.504C283.891 138.852 283.445 137.574 282.648 136.672C281.852 135.758 280.773 135.301 279.414 135.301ZM302.758 152C302.57 151.625 302.418 150.957 302.301 149.996C300.789 151.566 298.984 152.352 296.887 152.352C295.012 152.352 293.471 151.824 292.264 150.77C291.068 149.703 290.471 148.355 290.471 146.727C290.471 144.746 291.221 143.211 292.721 142.121C294.232 141.02 296.354 140.469 299.084 140.469H302.248V138.975C302.248 137.838 301.908 136.936 301.229 136.268C300.549 135.588 299.547 135.248 298.223 135.248C297.062 135.248 296.09 135.541 295.305 136.127C294.52 136.713 294.127 137.422 294.127 138.254H290.857C290.857 137.305 291.191 136.391 291.859 135.512C292.539 134.621 293.453 133.918 294.602 133.402C295.762 132.887 297.033 132.629 298.416 132.629C300.607 132.629 302.324 133.18 303.566 134.281C304.809 135.371 305.453 136.877 305.5 138.799V147.553C305.5 149.299 305.723 150.688 306.168 151.719V152H302.758ZM297.361 149.521C298.381 149.521 299.348 149.258 300.262 148.73C301.176 148.203 301.838 147.518 302.248 146.674V142.771H299.699C295.715 142.771 293.723 143.938 293.723 146.27C293.723 147.289 294.062 148.086 294.742 148.66C295.422 149.234 296.295 149.521 297.361 149.521ZM315.01 128.375V132.98H318.561V135.494H315.01V147.289C315.01 148.051 315.168 148.625 315.484 149.012C315.801 149.387 316.34 149.574 317.102 149.574C317.477 149.574 317.992 149.504 318.648 149.363V152C317.793 152.234 316.961 152.352 316.152 152.352C314.699 152.352 313.604 151.912 312.865 151.033C312.127 150.154 311.758 148.906 311.758 147.289V135.494H308.295V132.98H311.758V128.375H315.01ZM330.268 152.352C327.689 152.352 325.592 151.508 323.975 149.82C322.357 148.121 321.549 145.854 321.549 143.018V142.42C321.549 140.533 321.906 138.852 322.621 137.375C323.348 135.887 324.355 134.727 325.645 133.895C326.945 133.051 328.352 132.629 329.863 132.629C332.336 132.629 334.258 133.443 335.629 135.072C337 136.701 337.686 139.033 337.686 142.068V143.422H324.801C324.848 145.297 325.393 146.814 326.436 147.975C327.49 149.123 328.826 149.697 330.443 149.697C331.592 149.697 332.564 149.463 333.361 148.994C334.158 148.525 334.855 147.904 335.453 147.131L337.439 148.678C335.846 151.127 333.455 152.352 330.268 152.352ZM329.863 135.301C328.551 135.301 327.449 135.781 326.559 136.742C325.668 137.691 325.117 139.027 324.906 140.75H334.434V140.504C334.34 138.852 333.895 137.574 333.098 136.672C332.301 135.758 331.223 135.301 329.863 135.301ZM340.674 142.332C340.674 139.414 341.365 137.07 342.748 135.301C344.131 133.52 345.941 132.629 348.18 132.629C350.406 132.629 352.17 133.391 353.471 134.914V125H356.723V152H353.734L353.576 149.961C352.275 151.555 350.465 152.352 348.145 152.352C345.941 152.352 344.143 151.449 342.748 149.645C341.365 147.84 340.674 145.484 340.674 142.578V142.332ZM343.926 142.701C343.926 144.857 344.371 146.545 345.262 147.764C346.152 148.982 347.383 149.592 348.953 149.592C351.016 149.592 352.521 148.666 353.471 146.814V138.078C352.498 136.285 351.004 135.389 348.988 135.389C347.395 135.389 346.152 136.004 345.262 137.234C344.371 138.465 343.926 140.287 343.926 142.701ZM386.816 142.701C386.816 145.607 386.148 147.945 384.812 149.715C383.477 151.473 381.684 152.352 379.434 152.352C377.031 152.352 375.174 151.502 373.861 149.803L373.703 152H370.715V125H373.967V135.072C375.279 133.443 377.09 132.629 379.398 132.629C381.707 132.629 383.518 133.502 384.83 135.248C386.154 136.994 386.816 139.385 386.816 142.42V142.701ZM383.564 142.332C383.564 140.117 383.137 138.406 382.281 137.199C381.426 135.992 380.195 135.389 378.59 135.389C376.445 135.389 374.904 136.385 373.967 138.377V146.604C374.963 148.596 376.516 149.592 378.625 149.592C380.184 149.592 381.396 148.988 382.264 147.781C383.131 146.574 383.564 144.758 383.564 142.332ZM396.941 147.236L401.371 132.98H404.852L397.205 154.936C396.021 158.1 394.141 159.682 391.562 159.682L390.947 159.629L389.734 159.4V156.764L390.613 156.834C391.715 156.834 392.57 156.611 393.18 156.166C393.801 155.721 394.311 154.906 394.709 153.723L395.43 151.789L388.645 132.98H392.195L396.941 147.236ZM431.342 145.32H420.619L418.211 152H414.73L424.504 126.406H427.457L437.248 152H433.785L431.342 145.32ZM421.639 142.543H430.34L425.98 130.572L421.639 142.543ZM449.377 135.898C448.885 135.816 448.352 135.775 447.777 135.775C445.645 135.775 444.197 136.684 443.436 138.5V152H440.184V132.98H443.348L443.4 135.178C444.467 133.479 445.979 132.629 447.936 132.629C448.568 132.629 449.049 132.711 449.377 132.875V135.898ZM451.24 142.332C451.24 139.414 451.932 137.07 453.314 135.301C454.697 133.52 456.508 132.629 458.746 132.629C460.973 132.629 462.736 133.391 464.037 134.914V125H467.289V152H464.301L464.143 149.961C462.842 151.555 461.031 152.352 458.711 152.352C456.508 152.352 454.709 151.449 453.314 149.645C451.932 147.84 451.24 145.484 451.24 142.578V142.332ZM454.492 142.701C454.492 144.857 454.938 146.545 455.828 147.764C456.719 148.982 457.949 149.592 459.52 149.592C461.582 149.592 463.088 148.666 464.037 146.814V138.078C463.064 136.285 461.57 135.389 459.555 135.389C457.961 135.389 456.719 136.004 455.828 137.234C454.938 138.465 454.492 140.287 454.492 142.701ZM475.604 135.283C477.045 133.514 478.92 132.629 481.229 132.629C485.248 132.629 487.275 134.896 487.311 139.432V152H484.059V139.414C484.047 138.043 483.73 137.029 483.109 136.373C482.5 135.717 481.545 135.389 480.244 135.389C479.189 135.389 478.264 135.67 477.467 136.232C476.67 136.795 476.049 137.533 475.604 138.447V152H472.352V125H475.604V135.283ZM495.713 152H492.461V132.98H495.713V152ZM492.197 127.936C492.197 127.408 492.355 126.963 492.672 126.6C493 126.236 493.48 126.055 494.113 126.055C494.746 126.055 495.227 126.236 495.555 126.6C495.883 126.963 496.047 127.408 496.047 127.936C496.047 128.463 495.883 128.902 495.555 129.254C495.227 129.605 494.746 129.781 494.113 129.781C493.48 129.781 493 129.605 492.672 129.254C492.355 128.902 492.197 128.463 492.197 127.936ZM513.748 141.98V152H510.373V126.406H519.812C522.613 126.406 524.805 127.121 526.387 128.551C527.98 129.98 528.777 131.873 528.777 134.229C528.777 136.713 527.998 138.629 526.439 139.977C524.893 141.312 522.672 141.98 519.777 141.98H513.748ZM513.748 139.221H519.812C521.617 139.221 523 138.799 523.961 137.955C524.922 137.1 525.402 135.869 525.402 134.264C525.402 132.74 524.922 131.521 523.961 130.607C523 129.693 521.682 129.219 520.006 129.184H513.748V139.221ZM544.316 150.119C543.051 151.607 541.193 152.352 538.744 152.352C536.717 152.352 535.17 151.766 534.104 150.594C533.049 149.41 532.516 147.664 532.504 145.355V132.98H535.756V145.268C535.756 148.15 536.928 149.592 539.271 149.592C541.756 149.592 543.408 148.666 544.229 146.814V132.98H547.48V152H544.387L544.316 150.119ZM556.85 128.375V132.98H560.4V135.494H556.85V147.289C556.85 148.051 557.008 148.625 557.324 149.012C557.641 149.387 558.18 149.574 558.941 149.574C559.316 149.574 559.832 149.504 560.488 149.363V152C559.633 152.234 558.801 152.352 557.992 152.352C556.539 152.352 555.443 151.912 554.705 151.033C553.967 150.154 553.598 148.906 553.598 147.289V135.494H550.135V132.98H553.598V128.375H556.85ZM573.408 135.898C572.916 135.816 572.383 135.775 571.809 135.775C569.676 135.775 568.229 136.684 567.467 138.5V152H564.215V132.98H567.379L567.432 135.178C568.498 133.479 570.01 132.629 571.967 132.629C572.6 132.629 573.08 132.711 573.408 132.875V135.898ZM587.453 152C587.266 151.625 587.113 150.957 586.996 149.996C585.484 151.566 583.68 152.352 581.582 152.352C579.707 152.352 578.166 151.824 576.959 150.77C575.764 149.703 575.166 148.355 575.166 146.727C575.166 144.746 575.916 143.211 577.416 142.121C578.928 141.02 581.049 140.469 583.779 140.469H586.943V138.975C586.943 137.838 586.604 136.936 585.924 136.268C585.244 135.588 584.242 135.248 582.918 135.248C581.758 135.248 580.785 135.541 580 136.127C579.215 136.713 578.822 137.422 578.822 138.254H575.553C575.553 137.305 575.887 136.391 576.555 135.512C577.234 134.621 578.148 133.918 579.297 133.402C580.457 132.887 581.729 132.629 583.111 132.629C585.303 132.629 587.02 133.18 588.262 134.281C589.504 135.371 590.148 136.877 590.195 138.799V147.553C590.195 149.299 590.418 150.688 590.863 151.719V152H587.453ZM582.057 149.521C583.076 149.521 584.043 149.258 584.957 148.73C585.871 148.203 586.533 147.518 586.943 146.674V142.771H584.395C580.41 142.771 578.418 143.938 578.418 146.27C578.418 147.289 578.758 148.086 579.438 148.66C580.117 149.234 580.99 149.521 582.057 149.521Z" fill="white"/>
</svg>
