<svg width="400" height="400" viewBox="0 0 400 400" fill="none" xmlns="http://www.w3.org/2000/svg">
<rect width="400" height="400" fill="white"/>
<path fill-rule="evenodd" clip-rule="evenodd" d="M113 127H208.362V149.362H150.979H138.979V161.362V207.894H113V127ZM138.979 219.894H113H101V207.894V127V115H113H208.362H220.362V127V149.362H246.34H258.34V161.362V180.106H287.936H299.936V192.106V273V285H287.936H192.574H180.574V273V254.255H150.979H138.979V242.255V219.894ZM208.362 161.362H150.979V207.894H180.574V192.106V180.106H192.574H208.362V161.362ZM220.362 180.106V161.362H246.34V180.106H220.362ZM208.362 192.106H192.574V207.894H208.362V192.106ZM192.574 219.894H208.362H220.362V207.894V192.106H246.34V242.255H192.574V219.894ZM180.574 219.894V242.255H150.979V219.894H180.574ZM287.936 192.106H258.34V242.255V254.255H246.34H192.574V273H287.936V192.106Z" fill="#101920"/>
</svg>
